<svg xmlns="http://www.w3.org/2000/svg" width="32" height="32" fill="#ff8f1b" viewBox="0 0.004000000189989805 22.100000381469727 24.60700035095215"><g><g><path d="M3.84 17.13l3.32 3.32v1.16l-3.32-3.32v-1.16zm3.68 3.3l3.31-3.3v1.16l-3.31 3.3v-1.16zm3.67-3.3l3.35 3.34v1.16l-3.35-3.34v-1.16zm3.71 3.28L18.4 17v1.16l-3.5 3.46z" fill-rule="evenodd"></path><path d="M5.21 16.955l2.129-2.128 2.128 2.128-2.128 2.129zM12.589 16.947l2.128-2.129 2.128 2.129-2.128 2.128z"></path><path d="M0 13.3v-1.16l3.5 3.49v1.16L0 13.3zm3.86 2.33l3.31-3.31v1.16l-3.31 3.31v-1.16zm3.68-3.31l3.32 3.32v1.16l-3.32-3.32v-1.16zm3.68 3.3l3.31-3.3v1.16l-3.31 3.3v-1.16zm3.67-3.3l3.34 3.34v1.16l-3.34-3.35v-1.15zm3.71 3.28l3.5-3.46v1.16l-3.5 3.46z" fill-rule="evenodd"></path><path d="M0 11v1.16l3.5-3.52V7.48L0 11zm3.86-2.36L7.17 12v-1.21L3.86 7.48v1.16zM7.54 12l3.32-3.32V7.47l-3.32 3.32V12zm3.68-3.3l3.31 3.3v-1.21l-3.31-3.3v1.16zm3.67 3.3l3.34-3.35v-1.2l-3.34 3.35V12zm3.71-3.33l3.5 3.47V11l-3.5-3.49z" fill-rule="evenodd"></path><path d="M8.905 12.138l2.129-2.129 2.128 2.129-2.128 2.128zM16.284 12.14l2.128-2.129 2.129 2.128-2.129 2.129zM1.635 12.138l2.128-2.128 2.128 2.128-2.128 2.129zM12.593 6.483l2.13-2.128 2.127 2.128-2.129 2.129zM5.214 6.489l2.128-2.128 2.129 2.128-2.129 2.128zM8.914 2.133L11.043.004l2.128 2.129-2.128 2.128zM8.924 22.482l2.128-2.128 2.129 2.128-2.129 2.129z"></path></g></g></svg>
