<svg data-v-6805eed4="" version="1.0" xmlns="http://www.w3.org/2000/svg" xmlns:xlink="http://www.w3.org/1999/xlink" width="31.88" height="32" viewBox="0 0 340.000000 250.000000" preserveAspectRatio="xMidYMid meet" color-interpolation-filters="sRGB" style="margin: auto;">   <g data-v-6805eed4="" fill="#bb4634" class="basesvg" transform="translate(57.284996032714844,105.93499946594238)"><g data-gra="path-name" fill-rule="" class="tp-name"><g transform="scale(1)"><g><path d="M3.7 0L11.06 0 11.06-38.13 3.7-38.13ZM44.29 0L51.48 0 51.48-38.13 44.45-38.13 44.45-11.88 44.18-11.88 25.77-38.13 18.2-38.13ZM18.52 0L25.66 0 25.66-18.69 18.52-28.87ZM84.6 0L91.79 0 91.79-38.13 84.77-38.13 84.77-11.88 84.49-11.88 66.08-38.13 58.51-38.13ZM58.83 0L65.97 0 65.97-18.69 58.83-28.87ZM99.15 0L114.84 0C126.55 0 129.82-4.58 129.82-10.62 129.82-16.18 124.64-19.28 118.43-19.56L118.43-19.83C123.17-20.37 126.44-23.26 126.44-28.38 126.44-33.72 123.99-38.13 113.37-38.13L99.15-38.13 99.15-31.98 112.55-31.98C117.4-31.98 119.47-30.89 119.47-27.57 119.47-23.64 116.42-22.83 112.28-22.83L99.15-22.83 99.15-16.18 112.98-16.18C118.38-16.18 122.03-14.82 122.03-11 122.03-7.19 119.25-6.21 113.09-6.21L99.15-6.21ZM162.12-31L162.12-38.13 133.9-38.13 133.9-31ZM162.12-15.69L162.12-22.44 133.9-22.44 133.9-15.69ZM133.9 0L162.12 0 162.12-7.19 133.9-7.19ZM176.5-11.39L176.5-38.13 169.1-38.13 169.1-11.39ZM169.1 0L196.82 0 196.82-7.19 169.1-7.19ZM208.81-11.39L208.81-38.13 201.4-38.13 201.4-11.39ZM201.4 0L229.13 0 229.13-7.19 201.4-7.19Z" transform="translate(-3.700000047683716, 38.130001068115234)"></path></g> <!----> <!----> <!----> <!----> <!----> <!----> <!----></g></g> <!----></g><defs v-gra="od"></defs></svg>